<svg width="282" height="282" viewBox="0 0 282 282" fill="none" xmlns="http://www.w3.org/2000/svg">
<path d="M180.68 36H179.92C178.636 36.7259 177.614 37.8388 177 39.18C175.875 41.3442 175.009 43.6333 174.42 46C174.294 46.7116 173.934 47.3611 173.398 47.8462C172.863 48.3313 172.181 48.6246 171.46 48.68C169.256 49.06 167.167 49.9386 165.355 51.2489C163.542 52.5591 162.052 54.2663 161 56.24C159.553 58.8026 158.316 61.478 157.3 64.24C154.46 71.6 152.28 79.2 149.6 86.62C148.34 90 148.28 90 144.48 90C139.94 90 140.26 89.3 140.2 94.3C140.2 95.88 140.68 96.68 142.36 96.6C142.88 96.6 143.66 96.34 143.86 97.02C144.06 97.7 143.38 98 142.98 98.4C140.609 100.807 137.608 102.498 134.32 103.28C130.52 104.3 126.64 105.1 122.94 106.34C113.44 109.52 104.66 113.96 97.82 121.48C93.8206 126.151 90.6177 131.448 88.34 137.16C81 154.44 77.44 172.64 74.68 191.02C73.38 199.64 72.46 208.3 71.76 217.02C71.4 221.3 71 225.64 71 230H137.66C137.771 229.12 137.61 228.227 137.2 227.44C136.559 225.844 135.517 224.441 134.175 223.365C132.833 222.29 131.237 221.578 129.54 221.3C128.14 220.98 127.98 220.56 128.84 219.46C130.243 217.588 131.318 215.492 132.02 213.26C135.28 203.64 136.54 193.6 138.12 183.66C139.013 176.068 141.348 168.716 145 162C147.849 157.057 151.649 152.727 156.18 149.26C157.84 148 157.9 148 158.18 150.14C158.38 151.56 158.42 153.02 158.52 154.46C159.12 163.909 159 173.39 158.16 182.82C157.405 190.13 157.304 197.492 157.86 204.82C158.655 213.327 160.174 221.751 162.4 230H189C188.653 227.835 187.656 225.826 186.142 224.241C184.627 222.655 182.667 221.567 180.52 221.12C178.013 220.722 175.45 220.858 173 221.52C171.8 221.8 171.3 221.52 171.2 220.22C170.373 209.632 171.046 198.98 173.2 188.58C175.868 176.574 177.91 164.438 179.32 152.22C179.845 147.286 181.398 142.517 183.88 138.22C186.26 133.98 188.34 129.58 190.68 125.32C191.609 123.771 192.168 122.029 192.314 120.228C192.46 118.428 192.188 116.618 191.52 114.94C190.98 113.52 190.46 112.08 189.8 110.72C187.8 106.82 185.8 102.96 183.96 99.02C182.98 97.02 183.2 96.78 185.38 96.72C188.64 96.72 188.64 96.72 188.7 93.44C188.7 93 188.7 92.56 188.7 92.12C188.7 90.74 188.18 89.98 186.7 90.12C185.7 90.12 184.7 90.12 183.66 90.12C182.28 90.12 181.88 89.54 182.22 88.12C182.895 85.8116 184.222 83.7473 186.042 82.1755C187.862 80.6037 190.098 79.5912 192.48 79.26C196.911 78.8758 201.376 79.1657 205.72 80.12C206.221 80.2779 206.765 80.2322 207.232 79.9927C207.7 79.7531 208.055 79.3391 208.22 78.84C209.02 76.84 209.9 74.84 210.8 72.84C211.004 72.4852 211.094 72.0763 211.058 71.6686C211.023 71.2608 210.863 70.8739 210.6 70.56C204.2 62.44 197.26 54.86 187.8 50C187.343 49.8033 186.942 49.4952 186.635 49.1039C186.328 48.7127 186.123 48.2506 186.04 47.76C185.505 44.901 184.653 42.1105 183.5 39.44C182.959 38.0172 181.969 36.8096 180.68 36V36Z" fill="black"/>
</svg>
