<svg width="282" height="282" viewBox="0 0 282 282" fill="none" xmlns="http://www.w3.org/2000/svg">
<path d="M251.2 101.6C253.509 97.9261 256.578 94.7891 260.2 92.3999C262.2 90.9999 263.4 90.9999 264.6 93.5999C266.2 97.3999 267.6 101.4 266.4 105.6C266.182 106.312 266.14 107.067 266.28 107.799C266.419 108.531 266.735 109.218 267.2 109.8C268.4 111.4 269.4 113 270.4 114.4C271.761 116.127 272.644 118.183 272.96 120.359C273.276 122.535 273.014 124.757 272.2 126.8C271.466 128.784 271.327 130.938 271.8 133C272.2 134.98 272.2 137.02 271.8 139C271.638 140.483 271.038 141.884 270.076 143.024C269.114 144.164 267.835 144.991 266.4 145.4C263.842 145.887 261.559 147.314 260 149.4C259.811 149.707 259.546 149.961 259.231 150.136C258.916 150.311 258.561 150.402 258.2 150.4C255.8 150.8 249.8 145.4 249.8 143V141.8C250 134.6 249.6 134 243 131C241.619 130.513 240.381 129.688 239.4 128.6C238.2 127 236.6 127.2 234.8 127.8C233 128.4 232 129.6 232.2 131.6C232.803 136.442 233.004 141.325 232.8 146.2C232.813 146.756 232.95 147.303 233.2 147.8C239.4 156.8 241.8 167.4 244.8 177.6C247.2 185.4 251.6 189.6 259.6 190.2C260.88 190.302 262.151 190.503 263.4 190.8C265.044 191.064 266.57 191.815 267.783 192.956C268.995 194.097 269.837 195.575 270.2 197.2C271.6 201.4 270.8 202.4 266.6 202.4H253.6C251.917 202.485 250.267 201.911 249 200.8C246.976 199.092 244.677 197.739 242.2 196.8C239.462 195.789 237.093 193.977 235.4 191.6C233.057 188.327 230.376 185.31 227.4 182.6C221.8 176.8 215.8 171.2 210.6 165.2C206.641 161.112 204.358 155.688 204.2 150C204.2 148.2 203.8 147.4 201.8 148.2C201.201 148.58 200.509 148.787 199.8 148.8C194.2 148.8 191.4 152.2 189.4 157.2C187.6 161.4 185.2 165.4 183 169.6C181.753 172.229 181.071 175.091 181 178C181 182.8 182.2 184.4 186.6 186C189.4 187 192 188 193.4 190.8C195 194 194.6 194.8 191.2 195H177.6C176.816 195.078 176.027 194.907 175.346 194.512C174.664 194.117 174.123 193.518 173.8 192.8L170.2 186.8C169.139 185.234 168.459 183.442 168.216 181.566C167.973 179.691 168.173 177.784 168.8 176C169.666 172.527 169.734 168.903 169 165.4C168.496 162.96 168.539 160.439 169.127 158.018C169.715 155.597 170.833 153.337 172.4 151.4C173.6 150 173.6 149.4 171.6 149C163.422 147.263 155.493 144.508 148 140.8C147.947 140.8 147.896 140.779 147.859 140.741C147.821 140.704 147.8 140.653 147.8 140.6C141.4 138.2 140.2 138.6 138.4 145.2C136.8 150.8 135.2 156.4 134 162.2C132.6 168.6 134.2 174.6 136.2 180.6C137 183 139.4 182.8 141.2 183.4C145.2 184.6 148.6 186.2 150.2 190.4C151.6 193.6 151.4 194 148 194C144.6 194 141.2 193.8 137.6 194C134.562 194.055 131.597 193.067 129.2 191.2C119.6 184.8 116.8 175 116 164.4C115.6 157.8 112 152.6 107.8 147.6C107 146.6 106.2 146.2 105 147C100.707 149.367 96.2249 151.374 91.6 153C81.9485 156.408 73.4793 162.517 67.2 170.6C64.8553 173.55 63.3368 177.07 62.8 180.8C62.2 184.4 63.2 186 66.8 187C70.4 188 72.2 190 72.6 193.8C72.8 195.4 72.2 196.2 70.6 196.2H54.4C53.8698 196.162 53.3566 195.997 52.9039 195.719C52.4512 195.44 52.0725 195.056 51.8 194.6C49.2877 191.489 47.9433 187.598 48 183.6C47.8951 176.69 48.4982 169.787 49.8 163C50.067 160.967 50.8259 159.03 52.0108 157.358C53.1958 155.685 54.7711 154.326 56.6 153.4C68.4 147.8 74.6 137.2 80.2 126.2C81.4 124 80.4 123.6 78.4 123.8C72.8027 124.577 67.4994 126.781 63 130.2C57.1084 134.498 51.5585 139.245 46.4 144.4C40.8993 149.987 33.6054 153.457 25.8 154.2C11.2 155 4.40002 146.8 5.00002 133.6C5.13415 129.099 6.83132 124.785 9.80002 121.4C10.8321 120.062 12.2395 119.062 13.8426 118.527C15.4456 117.993 17.1716 117.949 18.8 118.4C21.8 119.2 22.6 120.8 21.4 123.8C20.8 125 20 126 19.4 127.2C18.5372 128.426 17.8631 129.774 17.4 131.2C15.2 137.2 18.2 141.4 24.4 142C31 142.6 36.4 139.8 41.4 135.8C47.4239 130.976 52.8014 125.397 57.4 119.2C60.8385 114.675 65.1682 110.902 70.1217 108.116C75.0751 105.33 80.5472 103.589 86.2 103C90.8 102.4 94.8 100.4 99.2 99.1999C107.429 96.6911 115.998 95.4766 124.6 95.5999C128.584 95.7658 132.553 95.0131 136.2 93.3999C146 89.3999 156.2 89.3999 166.4 91.3999C174.4 92.9999 182.4 94.9999 190.2 96.9999C194.842 97.8648 199.615 97.7285 204.2 96.5999C212.977 94.375 221.956 93.0349 231 92.5999C236.925 92.3116 242.83 93.479 248.2 95.9999C252.2 97.7999 252.2 97.7999 251.2 101.6Z" fill="black"/>
</svg>
