<svg width="282" height="282" viewBox="0 0 282 282" fill="none" xmlns="http://www.w3.org/2000/svg">
<path d="M180.68 30H179.92C178.636 30.7259 177.614 31.8388 177 33.18C175.875 35.3442 175.009 37.6333 174.42 40C174.294 40.7116 173.934 41.3611 173.398 41.8462C172.863 42.3313 172.181 42.6246 171.46 42.68C169.256 43.06 167.167 43.9386 165.355 45.2489C163.542 46.5591 162.052 48.2663 161 50.24C159.553 52.8026 158.316 55.478 157.3 58.24C154.46 65.6 152.28 73.2 149.6 80.62C148.34 84 148.28 84 144.48 84C139.94 84 140.26 83.3 140.2 88.3C140.2 89.88 140.68 90.68 142.36 90.6C142.88 90.6 143.66 90.34 143.86 91.02C144.06 91.7 143.38 92 142.98 92.4C140.609 94.8073 137.607 96.4984 134.32 97.28C130.52 98.3 126.64 99.1 122.94 100.34C113.44 103.52 104.66 107.96 97.82 115.48C93.8206 120.151 90.6177 125.448 88.34 131.16C81 148.44 77.44 166.64 74.68 185.02C73.38 193.64 72.46 202.3 71.76 211.02C71.4 215.3 71 219.64 71 224H137.66C137.771 223.12 137.61 222.227 137.2 221.44C136.559 219.844 135.517 218.441 134.175 217.365C132.833 216.29 131.237 215.578 129.54 215.3C128.14 214.98 127.98 214.56 128.84 213.46C130.243 211.588 131.318 209.492 132.02 207.26C135.28 197.64 136.54 187.6 138.12 177.66C139.013 170.068 141.348 162.716 145 156C147.849 151.057 151.649 146.727 156.18 143.26C157.84 142 157.9 142 158.18 144.14C158.38 145.56 158.42 147.02 158.52 148.46C159.12 157.909 159 167.39 158.16 176.82C157.405 184.13 157.304 191.492 157.86 198.82C158.655 207.327 160.174 215.751 162.4 224H189C188.653 221.835 187.656 219.826 186.142 218.241C184.627 216.655 182.667 215.567 180.52 215.12C178.013 214.722 175.45 214.858 173 215.52C171.8 215.8 171.3 215.52 171.2 214.22C170.373 203.632 171.046 192.98 173.2 182.58C175.868 170.574 177.91 158.438 179.32 146.22C179.845 141.286 181.398 136.517 183.88 132.22C186.26 127.98 188.34 123.58 190.68 119.32C191.609 117.771 192.168 116.029 192.314 114.228C192.46 112.428 192.188 110.618 191.52 108.94C190.98 107.52 190.46 106.08 189.8 104.72C187.8 100.82 185.8 96.96 183.96 93.02C182.98 91.02 183.2 90.78 185.38 90.72C188.64 90.72 188.64 90.72 188.7 87.44C188.7 87 188.7 86.56 188.7 86.12C188.7 84.74 188.18 83.98 186.7 84.12C185.7 84.12 184.7 84.12 183.66 84.12C182.28 84.12 181.88 83.54 182.22 82.12C182.895 79.8116 184.222 77.7473 186.042 76.1755C187.862 74.6037 190.098 73.5912 192.48 73.26C196.911 72.8758 201.376 73.1657 205.72 74.12C206.221 74.2779 206.765 74.2322 207.232 73.9927C207.7 73.7531 208.055 73.3391 208.22 72.84C209.02 70.84 209.9 68.84 210.8 66.84C211.004 66.4852 211.094 66.0763 211.058 65.6686C211.023 65.2608 210.863 64.8739 210.6 64.56C204.2 56.44 197.26 48.86 187.8 44C187.343 43.8033 186.942 43.4952 186.635 43.1039C186.328 42.7127 186.123 42.2506 186.04 41.76C185.505 38.901 184.653 36.1105 183.5 33.44C182.959 32.0172 181.969 30.8096 180.68 30V30Z" fill="black"/>
</svg>
