<svg width="282" height="282" viewBox="0 0 282 282" fill="none" xmlns="http://www.w3.org/2000/svg">
<path d="M251.2 97.5999C253.509 93.9261 256.578 90.7891 260.2 88.3999C262.2 86.9999 263.4 86.9999 264.6 89.5999C266.2 93.3999 267.6 97.3999 266.4 101.6C266.182 102.312 266.14 103.067 266.28 103.799C266.419 104.531 266.735 105.218 267.2 105.8C268.4 107.4 269.4 109 270.4 110.4C271.761 112.127 272.644 114.183 272.96 116.359C273.276 118.535 273.014 120.757 272.2 122.8C271.466 124.784 271.327 126.938 271.8 129C272.2 130.98 272.2 133.02 271.8 135C271.638 136.483 271.038 137.884 270.076 139.024C269.115 140.164 267.835 140.991 266.4 141.4C263.842 141.887 261.559 143.314 260 145.4C259.811 145.707 259.546 145.961 259.231 146.136C258.916 146.311 258.561 146.402 258.2 146.4C255.8 146.8 249.8 141.4 249.8 139V137.8C250 130.6 249.6 130 243 127C241.619 126.513 240.381 125.688 239.4 124.6C238.2 123 236.6 123.2 234.8 123.8C233 124.4 232 125.6 232.2 127.6C232.803 132.442 233.004 137.325 232.8 142.2C232.813 142.756 232.95 143.303 233.2 143.8C239.4 152.8 241.8 163.4 244.8 173.6C247.2 181.4 251.6 185.6 259.6 186.2C260.88 186.302 262.151 186.503 263.4 186.8C265.044 187.064 266.57 187.815 267.783 188.956C268.995 190.097 269.837 191.575 270.2 193.2C271.6 197.4 270.8 198.4 266.6 198.4H253.6C251.917 198.485 250.267 197.911 249 196.8C246.976 195.092 244.677 193.739 242.2 192.8C239.462 191.789 237.093 189.977 235.4 187.6C233.057 184.327 230.376 181.31 227.4 178.6C221.8 172.8 215.8 167.2 210.6 161.2C206.641 157.112 204.358 151.688 204.2 146C204.2 144.2 203.8 143.4 201.8 144.2C201.201 144.58 200.509 144.787 199.8 144.8C194.2 144.8 191.4 148.2 189.4 153.2C187.6 157.4 185.2 161.4 183 165.6C181.753 168.229 181.071 171.091 181 174C181 178.8 182.2 180.4 186.6 182C189.4 183 192 184 193.4 186.8C195 190 194.6 190.8 191.2 191H177.6C176.816 191.078 176.027 190.907 175.346 190.512C174.664 190.117 174.123 189.518 173.8 188.8L170.2 182.8C169.139 181.234 168.459 179.442 168.216 177.566C167.973 175.691 168.173 173.784 168.8 172C169.666 168.527 169.734 164.903 169 161.4C168.496 158.96 168.539 156.439 169.127 154.018C169.715 151.597 170.833 149.337 172.4 147.4C173.6 146 173.6 145.4 171.6 145C163.422 143.263 155.493 140.508 148 136.8C147.947 136.8 147.896 136.779 147.859 136.741C147.821 136.704 147.8 136.653 147.8 136.6C141.4 134.2 140.2 134.6 138.4 141.2C136.8 146.8 135.2 152.4 134 158.2C132.6 164.6 134.2 170.6 136.2 176.6C137 179 139.4 178.8 141.2 179.4C145.2 180.6 148.6 182.2 150.2 186.4C151.6 189.6 151.4 190 148 190C144.6 190 141.2 189.8 137.6 190C134.562 190.055 131.597 189.067 129.2 187.2C119.6 180.8 116.8 171 116 160.4C115.6 153.8 112 148.6 107.8 143.6C107 142.6 106.2 142.2 105 143C100.707 145.367 96.2249 147.374 91.6 149C81.9485 152.408 73.4793 158.517 67.2 166.6C64.8553 169.55 63.3368 173.07 62.8 176.8C62.2 180.4 63.2 182 66.8 183C70.4 184 72.2 186 72.6 189.8C72.8 191.4 72.2 192.2 70.6 192.2H54.4C53.8698 192.162 53.3566 191.997 52.9039 191.719C52.4512 191.44 52.0725 191.056 51.8 190.6C49.2877 187.489 47.9433 183.598 48 179.6C47.8951 172.69 48.4982 165.787 49.8 159C50.067 156.967 50.8259 155.03 52.0108 153.358C53.1958 151.685 54.7711 150.326 56.6 149.4C68.4 143.8 74.6 133.2 80.2 122.2C81.4 120 80.4 119.6 78.4 119.8C72.8027 120.577 67.4994 122.781 63 126.2C57.1084 130.498 51.5585 135.245 46.4 140.4C40.8993 145.987 33.6054 149.457 25.8 150.2C11.2 151 4.40002 142.8 5.00002 129.6C5.13415 125.099 6.83132 120.785 9.80002 117.4C10.8321 116.062 12.2395 115.062 13.8426 114.527C15.4456 113.993 17.1716 113.949 18.8 114.4C21.8 115.2 22.6 116.8 21.4 119.8C20.8 121 20 122 19.4 123.2C18.5372 124.426 17.8631 125.774 17.4 127.2C15.2 133.2 18.2 137.4 24.4 138C31 138.6 36.4 135.8 41.4 131.8C47.4239 126.976 52.8014 121.397 57.4 115.2C60.8385 110.675 65.1682 106.902 70.1217 104.116C75.0751 101.33 80.5472 99.5886 86.2 98.9999C90.8 98.3999 94.8 96.3999 99.2 95.1999C107.429 92.6911 115.998 91.4766 124.6 91.5999C128.584 91.7658 132.553 91.0131 136.2 89.3999C146 85.3999 156.2 85.3999 166.4 87.3999C174.4 88.9999 182.4 90.9999 190.2 92.9999C194.842 93.8648 199.615 93.7285 204.2 92.5999C212.977 90.375 221.956 89.0349 231 88.5999C236.925 88.3116 242.83 89.479 248.2 91.9999C252.2 93.7999 252.2 93.7999 251.2 97.5999Z" fill="black"/>
</svg>
