<svg width="149" height="38" viewBox="0 0 149 38" fill="none" xmlns="http://www.w3.org/2000/svg">
<g clip-path="url(#clip0_94_35)">
<path d="M6.07 20.72V18.46C12.7536 17.5423 19.4937 17.0979 26.24 17.13C26.24 17.73 26.24 18.34 26.18 18.95C28.0976 18.099 30.1128 17.4877 32.18 17.13C30.8625 13.722 28.4618 10.8412 25.3471 8.93087C22.2324 7.02052 18.5764 6.1864 14.9414 6.55683C11.3064 6.92727 7.89379 8.48172 5.22852 10.9811C2.56325 13.4804 0.792969 16.7863 0.190001 20.39L6.07 20.72Z" fill="#FDC305"/>
<path d="M27.24 24.23C26.08 25.51 25.85 25.43 25.85 27.68C25.85 28.59 25.85 32.58 25.85 36.86C28.1425 35.346 30.0245 33.2879 31.328 30.8694C32.6315 28.4509 33.3158 25.7474 33.32 23C33.3068 21.9591 33.1997 20.9216 33 19.9C30.9282 21.1295 28.9967 22.5814 27.24 24.23Z" fill="#FDC305"/>
<path d="M6.36 25.72C6.36 25.72 2.57 24.28 1.17 23.89C0.787067 23.7693 0.396097 23.6757 0 23.61C0.108395 26.496 0.965588 29.3041 2.48739 31.7586C4.00919 34.2131 6.14326 36.2296 8.68 37.61L6.36 25.72Z" fill="#FDC305"/>
<path d="M26.29 17.12C26.3307 11.5986 25.862 6.08528 24.89 0.65C24.89 0.65 24.75 -0.64 24 0.41C23.4109 1.65814 23.0067 2.98539 22.8 4.35C18.5418 4.07577 14.2675 4.18957 10.03 4.69C9.24 2 7.85 0.75 7.18 1C6.51 1.25 6.46 4.31 6.46 4.31L6.13 18.41C12.8113 17.506 19.548 17.0749 26.29 17.12Z" fill="#F06351"/>
<path d="M12.41 14C12.41 13.91 13.41 14.68 13.82 14.92C14.23 15.16 14.43 15.34 14.43 15.51C14.43 15.68 14.16 15.85 13.8 15.85C13.44 15.85 12.89 15.73 12.8 15.58H13.74H14.03C13.4207 15.1294 12.8757 14.5978 12.41 14Z" fill="black"/>
<path d="M19.89 14.11L18.8 15.44C18.8 15.5 18.63 15.79 18.98 15.74C19.3942 15.6783 19.8023 15.5812 20.2 15.45C20.31 15.45 20.27 15.26 20.09 15.28C19.91 15.3 19.4 15.33 19.09 15.39L19.93 14.13C19.93 14.13 20 14 19.89 14.11Z" fill="black"/>
<path d="M16.75 20.2C17.2135 19.9958 17.5967 19.6443 17.84 19.2C18.12 18.55 17.84 18.29 17.4 18.2C16.7979 18.0902 16.1765 18.2116 15.66 18.54C15.27 18.9 15.32 19.26 15.61 19.54C15.9613 19.8062 16.3442 20.0279 16.75 20.2Z" fill="black"/>
<path d="M16.35 21.45C16.2379 21.6785 16.0816 21.8825 15.89 22.05C15.6052 22.2791 15.2551 22.4122 14.89 22.43C14.3638 22.472 13.8406 22.3189 13.42 22C13.2222 21.8808 13.0436 21.7324 12.89 21.56C12.7895 21.4491 12.6669 21.3605 12.53 21.3C12.53 21.3 13.28 25.4 15.1 26.05C16.92 26.7 17.24 25.3 17.3 24.92C17.3601 23.7851 17.0742 22.6588 16.48 21.69C16.46 21.38 16.45 21.58 16.35 21.45Z" fill="#F06351"/>
<path d="M14.71 22.59C14.2453 22.5247 13.7989 22.3651 13.3982 22.1209C12.9975 21.8767 12.651 21.5531 12.38 21.17C12.3667 21.157 12.3561 21.1414 12.3489 21.1242C12.3417 21.1071 12.338 21.0886 12.338 21.07C12.338 21.0514 12.3417 21.0329 12.3489 21.0158C12.3561 20.9986 12.3667 20.983 12.38 20.97C12.393 20.9567 12.4086 20.9461 12.4258 20.9389C12.4429 20.9317 12.4614 20.928 12.48 20.928C12.4986 20.928 12.5171 20.9317 12.5342 20.9389C12.5514 20.9461 12.567 20.9567 12.58 20.97C13.0848 21.6642 13.843 22.1313 14.69 22.27C15.0217 22.245 15.3426 22.1413 15.6261 21.9674C15.9096 21.7934 16.1475 21.5544 16.32 21.27L16.46 21.08L16.56 21.29C16.56 21.29 16.93 22.05 17.56 22.09C18.19 22.13 18.61 21.68 19.17 20.81C19.183 20.7967 19.1986 20.7861 19.2158 20.7789C19.2329 20.7717 19.2514 20.768 19.27 20.768C19.2886 20.768 19.3071 20.7717 19.3242 20.7789C19.3414 20.7861 19.357 20.7967 19.37 20.81C19.4023 20.8306 19.4255 20.8629 19.4348 20.9C19.4441 20.9372 19.4388 20.9766 19.42 21.01C18.78 22.01 18.15 22.45 17.54 22.41C17.308 22.3763 17.0867 22.2904 16.8927 22.1587C16.6987 22.0271 16.5371 21.8531 16.42 21.65C16.2233 21.9245 15.9676 22.1514 15.6717 22.3141C15.3758 22.4767 15.0471 22.571 14.71 22.59Z" fill="black"/>
<path d="M26.24 18.92C24.4445 20.5437 22.7512 22.277 21.17 24.11C19.5986 25.9361 17.8238 27.5768 15.88 29C15.66 28.47 14.26 27.49 14.26 27.49C14.26 27.49 11.13 25.35 9.08 23.67C7.97414 22.7373 6.9287 21.7353 5.95 20.67L3.95 20.56C6.84018 24.7655 11.0702 27.8676 15.95 29.36C16.81 29.22 19.22 27.5 21.02 26.1C23.1389 24.2819 25.124 22.3134 26.96 20.21C27.4625 19.621 27.8493 18.9425 28.1 18.21C27 18.6 26.24 18.92 26.24 18.92Z" fill="#F06351"/>
</g>
<g clip-path="url(#clip1_94_35)">
<path d="M49.2645 29.5385C48.3696 28.2762 47.9253 26.7627 48 25.2308V18.8462C47.8916 17.2977 48.3081 15.7575 49.1855 14.4615C50.0548 13.4615 51.3983 13 53.374 13C55.3498 13 56.6143 13.4615 57.4045 14.3077C58.2626 15.3794 58.6846 16.7214 58.59 18.0769V19.6154H54.7175V17.8462C54.7488 17.3229 54.6681 16.799 54.4804 16.3077C54.3802 16.1094 54.2212 15.9448 54.024 15.8351C53.8269 15.7255 53.6005 15.6757 53.374 15.6923C52.8208 15.6923 52.4257 15.8462 52.2676 16.2308C52.0888 16.7773 52.0086 17.3499 52.0305 17.9231V26.1538C51.9888 26.71 52.0978 27.267 52.3466 27.7692C52.5047 28.1538 52.8999 28.3077 53.4531 28.3077C54.0063 28.3077 54.3224 28.1538 54.4804 27.7692C54.6601 27.2494 54.7405 26.7019 54.7175 26.1538V24.3077H58.59V25.8462C58.6704 27.2238 58.2508 28.5852 57.4045 29.6923C56.6143 30.6154 55.2707 31.0769 53.374 31.0769C51.4773 31 50.0548 30.5385 49.2645 29.5385Z" fill="#111111"/>
<path d="M63.2527 13.2308H67.7574L71.0767 30.7692H67.4413L66.8091 27.0769H64.2011L63.5689 30.7692H59.8545L63.2527 13.2308ZM66.493 24.7692L65.5446 17.9231L64.5963 24.7692H66.493Z" fill="#111111"/>
<path d="M73.8427 16.1538H71.1557V13.2308H80.5602V16.0769H77.8732V30.7692H73.8427V16.1538Z" fill="#111111"/>
<path d="M87.752 13.2308H94.7066V15.0769H90.2019V20.8462H93.8372V22.6154H90.2019V29.0769H94.7066V30.8462H87.6729V13.2308H87.752Z" fill="#111111"/>
<path d="M96.7613 13.2308H98.5L103.637 24.8462V13.2308H105.692V30.7692H104.111L98.8951 18.7692V30.7692H96.7613V13.2308Z" fill="#111111"/>
<path d="M108.063 13.2308H115.017V15.0769H110.513V20.8462H114.148V22.6154H110.513V29.0769H115.017V30.8462H108.063V13.2308Z" fill="#111111"/>
<path d="M117.072 13.2308H120.707C122.137 13.1346 123.559 13.5144 124.738 14.3077C125.607 15 126.002 16.2308 126.002 17.8462C126.002 20.0769 125.291 21.4615 123.79 21.9231L126.318 30.6923H123.869L121.498 22.4615H119.522V30.6923H116.993V13.2308H117.072ZM120.549 20.7692C121.364 20.8346 122.176 20.6165 122.841 20.1538C123.315 19.7692 123.552 19 123.552 17.8462C123.574 17.273 123.494 16.7004 123.315 16.1538C123.137 15.7617 122.832 15.4373 122.446 15.2308C121.902 14.9893 121.304 14.8836 120.707 14.9231H119.601V20.6923H120.549V20.7692Z" fill="#111111"/>
<path d="M129.164 29.4615C128.342 28.1166 127.956 26.5617 128.057 25V19.1538C128.038 18.0391 128.17 16.9268 128.452 15.8462C128.717 15.0386 129.244 14.3367 129.954 13.8462C130.836 13.3377 131.854 13.0967 132.878 13.1538C134.538 13.1538 135.723 13.5385 136.434 14.3846C137.252 15.5019 137.644 16.8624 137.541 18.2308V18.8462H135.17V18.3077C135.173 17.6635 135.12 17.0201 135.012 16.3846C134.945 15.983 134.718 15.6235 134.379 15.3846C133.935 15.1008 133.408 14.9658 132.878 15C132.311 14.9647 131.75 15.1284 131.297 15.4615C131.111 15.614 130.959 15.8018 130.851 16.0134C130.742 16.2251 130.679 16.4561 130.665 16.6923C130.561 17.38 130.508 18.0741 130.507 18.7692V25.3077C130.449 26.3038 130.61 27.3006 130.981 28.2308C131.297 28.8462 131.93 29.0769 132.878 29.0769C133.252 29.1223 133.632 29.0589 133.97 28.8947C134.307 28.7304 134.587 28.4727 134.775 28.1538C135.192 27.1811 135.381 26.1299 135.328 25.0769V23.8462H133.036V22.0769H137.62V30.7692H136.039L135.802 28.7692C135.595 29.4395 135.163 30.0231 134.576 30.4273C133.989 30.8315 133.28 31.0331 132.562 31C131.909 31.0374 131.256 30.9164 130.663 30.6479C130.07 30.3794 129.555 29.9717 129.164 29.4615V29.4615Z" fill="#111111"/>
<path d="M142.678 24.6154L138.805 13.3077H141.176L143.942 21.7692L146.629 13.3077H149L145.128 24.6154V30.7692H142.757V24.6154H142.678Z" fill="#111111"/>
</g>
<defs>
<clipPath id="clip0_94_35">
<rect width="33.32" height="37.61" fill="white"/>
</clipPath>
<clipPath id="clip1_94_35">
<rect width="101" height="18" fill="white" transform="translate(48 13)"/>
</clipPath>
</defs>
</svg>
