<svg width="282" height="282" fill="none" xmlns="http://www.w3.org/2000/svg"><path d="M180.68 30h-.76a7 7 0 00-2.92 3.18 31.039 31.039 0 00-2.58 6.82 3.257 3.257 0 01-2.96 2.68A14.675 14.675 0 00161 50.24a54.62 54.62 0 00-3.7 8c-2.84 7.36-5.02 14.96-7.7 22.38-1.26 3.38-1.32 3.38-5.12 3.38-4.54 0-4.22-.7-4.28 4.3 0 1.58.48 2.38 2.16 2.3.52 0 1.3-.26 1.5.42.2.68-.48.98-.88 1.38a18 18 0 01-8.66 4.88c-3.8 1.02-7.68 1.82-11.38 3.06-9.5 3.18-18.28 7.62-25.12 15.14a56 56 0 00-9.48 15.68c-7.34 17.28-10.9 35.48-13.66 53.86-1.3 8.62-2.22 17.28-2.92 26-.36 4.28-.76 8.62-.76 12.98h66.66a4.36 4.36 0 00-.46-2.56 10 10 0 00-7.66-6.14c-1.4-.32-1.56-.74-.7-1.84a20.685 20.685 0 003.18-6.2c3.26-9.62 4.52-19.66 6.1-29.6A60.018 60.018 0 01145 156a43.215 43.215 0 0111.18-12.74c1.66-1.26 1.72-1.26 2 .88.2 1.42.24 2.88.34 4.32.6 9.449.48 18.93-.36 28.36a123.318 123.318 0 00-.3 22A150.344 150.344 0 00162.4 224H189a10.817 10.817 0 00-8.48-8.88 18.007 18.007 0 00-7.52.4c-1.2.28-1.7 0-1.8-1.3a112.726 112.726 0 012-31.64 355.46 355.46 0 006.12-36.36 35.499 35.499 0 014.56-14c2.38-4.24 4.46-8.64 6.8-12.9a11.744 11.744 0 00.84-10.38c-.54-1.42-1.06-2.86-1.72-4.22-2-3.9-4-7.76-5.84-11.7-.98-2-.76-2.24 1.42-2.3 3.26 0 3.26 0 3.32-3.28v-1.32c0-1.38-.52-2.14-2-2h-3.04c-1.38 0-1.78-.58-1.44-2a12.483 12.483 0 0110.26-8.86 43.999 43.999 0 0113.24.86 1.999 1.999 0 002.5-1.28c.8-2 1.68-4 2.58-6a1.997 1.997 0 00-.2-2.28c-6.4-8.12-13.34-15.7-22.8-20.56a2.977 2.977 0 01-1.76-2.24 39.162 39.162 0 00-2.54-8.32 7 7 0 00-2.82-3.44z" fill="#000"/></svg>